<?xml version="1.0" standalone="no"?><!DOCTYPE svg PUBLIC "-//W3C//DTD SVG 1.1//EN" "http://www.w3.org/Graphics/SVG/1.1/DTD/svg11.dtd"><svg t="1679926027360" class="icon" viewBox="0 0 1024 1024" version="1.1" xmlns="http://www.w3.org/2000/svg" p-id="6440" xmlns:xlink="http://www.w3.org/1999/xlink" width="200" height="200"><path d="M512 1024C230.4 1024 0 793.6 0 512S230.4 0 512 0s512 230.4 512 512-230.4 512-512 512z m0-972.8C258.56 51.2 51.2 258.56 51.2 512s207.36 460.8 460.8 460.8 460.8-207.36 460.8-460.8S765.44 51.2 512 51.2z" p-id="6441"></path><path d="M791.04 465.92H232.96c-15.36 0-25.6-10.24-25.6-25.6s10.24-25.6 25.6-25.6h504.32l-76.8-87.04c-10.24-10.24-7.68-25.6 2.56-35.84s25.6-7.68 35.84 2.56l112.64 130.56c7.68 7.68 7.68 17.92 5.12 28.16-5.12 7.68-15.36 12.8-25.6 12.8zM345.6 737.28c-7.68 0-15.36-2.56-20.48-7.68l-112.64-130.56c-7.68-7.68-7.68-17.92-2.56-25.6 5.12-10.24 12.8-15.36 23.04-15.36H793.6c15.36 0 25.6 10.24 25.6 25.6s-10.24 25.6-25.6 25.6H289.28l76.8 87.04c10.24 10.24 7.68 25.6-2.56 35.84-7.68 5.12-12.8 5.12-17.92 5.12z" p-id="6442"></path></svg>